<svg width="40" height="41" viewBox="0 0 40 41" fill="none" xmlns="http://www.w3.org/2000/svg">
<path fill-rule="evenodd" clip-rule="evenodd" d="M20 6.40625C12.4061 6.40625 6.25 12.7162 6.25 20.5C6.25 28.2838 12.4061 34.5938 20 34.5938C27.5939 34.5938 33.75 28.2838 33.75 20.5C33.75 12.7162 27.5939 6.40625 20 6.40625ZM3.75 20.5C3.75 11.301 11.0254 3.84375 20 3.84375C28.9746 3.84375 36.25 11.301 36.25 20.5C36.25 29.699 28.9746 37.1562 20 37.1562C11.0254 37.1562 3.75 29.699 3.75 20.5Z" fill="#00B37E"/>
<path fill-rule="evenodd" clip-rule="evenodd" d="M13.8193 20.5709C14.3074 20.0706 15.0989 20.0706 15.587 20.5709L20 25.0942L24.413 20.5709C24.9012 20.0706 25.6926 20.0706 26.1808 20.5709C26.6689 21.0713 26.6689 21.8825 26.1808 22.3829L20.8839 27.8122C20.3958 28.3125 19.6043 28.3125 19.1161 27.8122L13.8193 22.3829C13.3311 21.8825 13.3311 21.0713 13.8193 20.5709Z" fill="#00B37E"/>
<path fill-rule="evenodd" clip-rule="evenodd" d="M20.0001 12.8125C20.6904 12.8125 21.2501 13.3861 21.2501 14.0938L21.2501 26.9062C21.2501 27.6139 20.6904 28.1875 20.0001 28.1875C19.3097 28.1875 18.7501 27.6139 18.7501 26.9062L18.7501 14.0938C18.7501 13.3861 19.3097 12.8125 20.0001 12.8125Z" fill="#00B37E"/>
</svg>
