<svg width="42" height="40" viewBox="0 0 42 40" fill="none" xmlns="http://www.w3.org/2000/svg">
<path fill-rule="evenodd" clip-rule="evenodd" d="M21 6.25C13.0264 6.25 6.5625 12.4061 6.5625 20C6.5625 27.5939 13.0264 33.75 21 33.75C28.9736 33.75 35.4375 27.5939 35.4375 20C35.4375 12.4061 28.9736 6.25 21 6.25ZM3.9375 20C3.9375 11.0254 11.5766 3.75 21 3.75C30.4234 3.75 38.0625 11.0254 38.0625 20C38.0625 28.9746 30.4234 36.25 21 36.25C11.5766 36.25 3.9375 28.9746 3.9375 20Z" fill="#F75A68"/>
<path fill-rule="evenodd" clip-rule="evenodd" d="M20.9999 12.5C21.348 12.5 21.6819 12.6317 21.928 12.8661L27.4897 18.163C28.0023 18.6511 28.0023 19.4426 27.4897 19.9308C26.9772 20.4189 26.1461 20.4189 25.6336 19.9308L20.9999 15.5178L16.3663 19.9308C15.8537 20.4189 15.0227 20.4189 14.5101 19.9308C13.9976 19.4426 13.9976 18.6511 14.5101 18.163L20.0719 12.8661C20.318 12.6317 20.6518 12.5 20.9999 12.5Z" fill="#F75A68"/>
<path fill-rule="evenodd" clip-rule="evenodd" d="M21 12.5C21.7249 12.5 22.3125 13.0596 22.3125 13.75L22.3125 26.25C22.3125 26.9404 21.7249 27.5 21 27.5C20.2751 27.5 19.6875 26.9404 19.6875 26.25L19.6875 13.75C19.6875 13.0596 20.2751 12.5 21 12.5Z" fill="#F75A68"/>
</svg>
