<svg width="235" height="205" viewBox="0 0 235 205" fill="none" xmlns="http://www.w3.org/2000/svg">
<path d="M195.719 22.1947H42.5707C33.7341 22.1947 26.5707 29.3581 26.5707 38.1947V167.707C26.5707 176.544 33.7341 183.707 42.5707 183.707H195.719C204.556 183.707 211.719 176.544 211.719 167.707V38.1947C211.719 29.3581 204.556 22.1947 195.719 22.1947Z" fill="#FFD100"/>
<path d="M163.137 70.4107L136.3 92.9743C135.062 94.054 133.95 94.423 132.979 94.423C131.318 94.423 130.206 93.4663 129.657 91.881L122.184 69.6727C122.043 69.1943 121.902 68.716 121.902 68.224C121.902 66.5293 123.14 65.3267 125.365 65.3267H161.884C163.403 65.3267 164.798 66.2833 164.798 67.7457C164.798 68.47 164.249 69.4403 163.137 70.4107ZM178.757 53.6417C175.294 53.2863 147.486 52.439 134.216 52.439C107.238 52.439 87.185 52.562 71.5497 66.8027C55.225 81.6583 55.225 101.202 55.225 132.813V150.32C55.225 152.971 56.8857 154.789 60.207 154.789C62.1497 154.789 63.6693 154.31 66.4423 151.891L124.816 102.65C125.788 101.803 127.041 101.325 127.997 101.325C129.939 101.325 131.6 102.65 131.6 104.577V151.167C131.6 153.34 133.12 154.789 135.47 154.789H137.271C144.321 154.789 158.03 152.247 169.498 141.641C183.472 128.849 184.162 114.855 184.162 88.3003V58.4933C184.162 55.8283 182.078 54.0243 178.772 53.669" fill="#0043BC"/>
</svg>
